<mxfile host="app.diagrams.net" modified="2021-12-01T03:46:42.004Z" agent="5.0 (Macintosh; Intel Mac OS X 10_15_7) AppleWebKit/537.36 (KHTML, like Gecko) Chrome/96.0.4664.55 Safari/537.36" etag="4DCxl6KKSd7PyNMHkLY_" version="15.8.6" type="github">
  <diagram id="Iy7BZ59EdApuc7f7Dl7F" name="Page-1">
    <mxGraphModel dx="1365" dy="801" grid="1" gridSize="10" guides="1" tooltips="1" connect="1" arrows="1" fold="1" page="1" pageScale="1" pageWidth="827" pageHeight="1169" math="0" shadow="0">
      <root>
        <mxCell id="0" />
        <mxCell id="1" parent="0" />
        <mxCell id="jPMh5zd4GCBrb5BEVeMa-4" style="edgeStyle=orthogonalEdgeStyle;rounded=0;orthogonalLoop=1;jettySize=auto;html=1;exitX=1;exitY=0.5;exitDx=0;exitDy=0;endArrow=none;endFill=0;" edge="1" parent="1" source="jPMh5zd4GCBrb5BEVeMa-1" target="jPMh5zd4GCBrb5BEVeMa-2">
          <mxGeometry relative="1" as="geometry" />
        </mxCell>
        <mxCell id="jPMh5zd4GCBrb5BEVeMa-5" style="rounded=0;orthogonalLoop=1;jettySize=auto;html=1;exitX=0.5;exitY=1;exitDx=0;exitDy=0;entryX=0;entryY=0;entryDx=0;entryDy=0;endArrow=none;endFill=0;" edge="1" parent="1" source="jPMh5zd4GCBrb5BEVeMa-1" target="jPMh5zd4GCBrb5BEVeMa-3">
          <mxGeometry relative="1" as="geometry" />
        </mxCell>
        <mxCell id="jPMh5zd4GCBrb5BEVeMa-1" value="userId: 1" style="ellipse;whiteSpace=wrap;html=1;aspect=fixed;" vertex="1" parent="1">
          <mxGeometry x="410" y="350" width="80" height="80" as="geometry" />
        </mxCell>
        <mxCell id="jPMh5zd4GCBrb5BEVeMa-6" style="edgeStyle=none;rounded=0;orthogonalLoop=1;jettySize=auto;html=1;exitX=0.5;exitY=1;exitDx=0;exitDy=0;entryX=1;entryY=0;entryDx=0;entryDy=0;endArrow=none;endFill=0;" edge="1" parent="1" source="jPMh5zd4GCBrb5BEVeMa-2" target="jPMh5zd4GCBrb5BEVeMa-3">
          <mxGeometry relative="1" as="geometry" />
        </mxCell>
        <mxCell id="jPMh5zd4GCBrb5BEVeMa-2" value="movieId: 2" style="ellipse;whiteSpace=wrap;html=1;aspect=fixed;" vertex="1" parent="1">
          <mxGeometry x="600" y="350" width="80" height="80" as="geometry" />
        </mxCell>
        <mxCell id="jPMh5zd4GCBrb5BEVeMa-3" value="tagId: 3" style="ellipse;whiteSpace=wrap;html=1;aspect=fixed;" vertex="1" parent="1">
          <mxGeometry x="510" y="505" width="80" height="80" as="geometry" />
        </mxCell>
      </root>
    </mxGraphModel>
  </diagram>
</mxfile>
